<?xml version="1.0" encoding="utf-8"?>
<!-- Generator: Adobe Illustrator 23.0.6, SVG Export Plug-In . SVG Version: 6.00 Build 0)  -->
<svg version="1.1" id="Layer_1" xmlns="http://www.w3.org/2000/svg" xmlns:xlink="http://www.w3.org/1999/xlink" x="0px" y="0px"
	 viewBox="0 0 512 512" enable-background="new 0 0 512 512" xml:space="preserve">
<g id="_x38_psOy0.tif">
	<g>
		<path d="M414.13,253.45c-21.36,21.85-41.52,42.46-62.8,64.22c-29.91-19.91-57.14-37.42-83.63-56c-3.82-2.68-7.18-4.38-10.49-5
			v-0.28c-0.41,0.01-0.81,0.05-1.22,0.09c-0.41-0.04-0.81-0.08-1.22-0.09v0.28c-3.31,0.63-6.67,2.32-10.49,5
			c-26.49,18.58-53.72,36.09-83.63,56c-21.28-21.76-41.43-42.37-62.8-64.22c-32.24,64.39-63.92,127.68-96.4,192.56
			c39.47,19.8,77.75,38.62,115.61,58.26c9.88,5.13,17.72,4.68,27.43-0.38c33.35-17.37,66.93-34.35,101-50.23
			c2.95-1.38,6.68-2.14,10.49-2.3c3.81,0.16,7.54,0.92,10.49,2.3c34.08,15.88,67.66,32.86,101,50.23c9.7,5.06,17.55,5.5,27.43,0.38
			c37.85-19.64,76.13-38.45,115.61-58.26C478.05,381.13,446.37,317.84,414.13,253.45z"/>
		<g>
			<path fill="#FFFFFF" d="M107.03,313.11c2.56,1.28,3.1,1.48,3.57,1.79c27.66,18.04,34.39,41.46,23.63,73.24
				c-8.17,24.15-10.79,50.17-16.26,77.19c-24.37-12.19-46.42-23.22-69.64-34.84C68.01,391.15,87.24,352.69,107.03,313.11z"/>
			<path fill="#FFFFFF" d="M155.02,459.24c7.63-37.81,14.29-71.6,21.46-105.28c0.74-3.47,3.93-7.17,7-9.28
				c17.53-12.04,35.36-23.63,56.49-37.62c0,28.51-1.65,54.19,0.49,79.55c1.92,22.68-4.31,36.22-26.82,44.04
				C194.8,437.2,177.46,448.07,155.02,459.24z"/>
			<path fill="#FFFFFF" d="M404.97,313.11c-2.56,1.28-3.1,1.48-3.57,1.79c-27.66,18.04-34.39,41.46-23.63,73.24
				c8.17,24.15,10.79,50.17,16.26,77.19c24.37-12.19,46.42-23.22,69.64-34.84C443.99,391.15,424.76,352.69,404.97,313.11z"/>
			<path fill="#FFFFFF" d="M356.98,459.24c-7.63-37.81-14.29-71.6-21.46-105.28c-0.74-3.47-3.93-7.17-7-9.28
				c-17.53-12.04-35.36-23.63-56.49-37.62c0,28.51,1.65,54.19-0.49,79.55c-1.92,22.68,4.31,36.22,26.82,44.04
				C317.2,437.2,334.54,448.07,356.98,459.24z"/>
		</g>
	</g>
</g>
<g id="swwx3c.tif">
	<g>
		<path d="M68.71,141.41C50.6,123.09,53.27,94.2,75.86,80.18c-6.66-9.18-10.05-19.3-7.49-30.69c1.86-8.27,6.09-15.23,12.39-20.94
			c13.67-12.37,29.17-13.01,47.9-2.2c4.23-4.11,7.91-8.72,12.54-11.97c15.4-10.81,35.03-8.6,48.8,5.14
			c38.1,38.04,76.15,76.13,114.21,114.2c0.48,0.48,0.9,1.04,1.45,1.42c1.04,0.72,2.14,1.33,3.22,1.99c0.41-1.32,1.17-2.63,1.17-3.95
			c0.07-22.59-0.1-45.18,0.11-67.77c0.16-17.25,6.95-30.97,22.85-39.04c20.74-10.54,46.59-3.98,58.57,14.68
			c5.32,8.29,6.57,17.61,6.58,27.18c0.02,44.5,0.1,89.01-0.07,133.51c-0.05,14.18,0.21,28.48-1.41,42.52
			c-4.04,35.02-20.68,63.38-48.66,84.71c-26.89,20.5-57.54,29.47-91.22,26.55c-30.32-2.62-56.4-15.23-77.97-36.63
			c-39.37-39.06-78.6-78.27-117.66-117.63c-17.32-17.45-14.41-44.46,5.76-58.43C67.46,142.45,67.95,142.02,68.71,141.41z
			 M284.58,154.03c-0.47-0.59-0.76-1.05-1.13-1.43c-37.96-37.97-75.9-75.95-113.9-113.89c-4.34-4.34-9.96-4.35-14.11-0.38
			c-4.29,4.11-4.3,10.05,0.33,14.7c24.24,24.34,48.54,48.62,72.9,72.84c0.81,0.8,2.56,1.22,3.72,1.01
			c7.2-1.34,12.57,0.85,15.84,6.77c3.29,5.94,2.33,12.09-2.92,17.35c-26.37,26.42-52.76,52.82-79.18,79.19
			c-5.24,5.23-11.49,6.2-17.34,2.92c-5.88-3.29-8.08-8.65-6.74-15.86c0.2-1.08-0.07-2.71-0.78-3.43
			c-15.42-15.57-30.9-31.07-46.44-46.51c-2.5-2.48-5.51-3.8-9.22-2.69c-8.45,2.52-10.39,11.22-3.83,17.78
			c38.34,38.36,76.6,76.79,115.07,115.01c32.3,32.09,75.61,39.76,116.3,20.16c29.42-14.17,47.74-37.56,54.75-69.67
			c2.75-12.57,2.17-25.27,2.18-37.96c0.03-48.01,0-96.02,0.03-144.04c0-5-1.38-9.38-5.27-12.63c-5.29-4.42-11.39-4.91-17.52-2.4
			c-6.09,2.49-9.03,7.47-9.03,14.07c-0.02,25.83-0.05,51.66-0.03,77.5c0.01,10.22-2.47,13.9-12.09,17.62
			c-33.69,13.01-50.69,50.62-38.26,84.56c3.22,8.78,8.26,16.35,14.71,23.06c3.52,3.67,5.91,7.78,4.49,13.14
			c-1.51,5.69-5.12,9.42-10.78,11.04c-5.46,1.56-9.71-0.72-13.5-4.43c-25.45-24.89-33.87-66.56-20.32-100.28
			C267.54,174.57,274.82,163.51,284.58,154.03z M195.12,160.53c4.94-4.93,9.51-9.49,14.67-14.64c-1.17-0.95-2.75-2.03-4.09-3.36
			c-10.17-10.09-20.29-20.23-30.42-30.36c-20.36-20.36-40.71-40.72-61.05-61.1c-2.46-2.47-5.07-4.54-8.81-4.16
			c-4.47,0.45-7.4,2.95-9.02,7.08c-1.76,4.5,0.3,7.81,3.33,10.84c23.13,23.13,46.28,46.24,69.39,69.39
			C178,143.11,186.78,152.08,195.12,160.53z M175.83,180.38c-8.7-8.66-17.51-17.42-26.31-26.2c-15.78-15.76-31.52-31.56-47.33-47.29
			c-4.14-4.12-8.09-4.73-12.39-2.21c-6.48,3.79-7.14,10.82-1.34,16.64c23.85,23.93,47.77,47.81,71.67,71.69
			c0.55,0.55,1.18,1.01,1.62,1.37C166.49,189.68,171.05,185.13,175.83,180.38z"/>
		<path fill="#FFFFFF" d="M284.58,154.03c-9.76,9.48-17.04,20.54-22.09,33.12c-13.54,33.72-5.13,75.39,20.32,100.28
			c3.79,3.71,8.04,6,13.5,4.43c5.66-1.62,9.27-5.35,10.78-11.04c1.43-5.35-0.97-9.47-4.49-13.14c-6.44-6.71-11.49-14.28-14.71-23.06
			c-12.43-33.94,4.57-71.55,38.26-84.56c9.62-3.72,12.1-7.4,12.09-17.62c-0.02-25.83,0-51.66,0.03-77.5
			c0.01-6.6,2.94-11.58,9.03-14.07c6.13-2.51,12.23-2.02,17.52,2.4c3.89,3.25,5.28,7.63,5.27,12.63
			c-0.03,48.01,0.01,96.02-0.03,144.04c-0.01,12.69,0.57,25.38-2.18,37.96c-7.02,32.11-25.33,55.51-54.75,69.67
			c-40.69,19.6-84,11.93-116.3-20.16c-38.47-38.22-76.74-76.65-115.07-115.01c-6.55-6.56-4.62-15.26,3.83-17.78
			c3.71-1.11,6.72,0.21,9.22,2.69c15.54,15.44,31.03,30.94,46.44,46.51c0.71,0.72,0.98,2.35,0.78,3.43
			c-1.34,7.21,0.87,12.56,6.74,15.86c5.85,3.28,12.1,2.31,17.34-2.92c26.42-26.37,52.81-52.77,79.18-79.19
			c5.25-5.26,6.21-11.41,2.92-17.35c-3.28-5.91-8.64-8.11-15.84-6.77c-1.16,0.22-2.91-0.21-3.72-1.01
			c-24.36-24.22-48.66-48.5-72.9-72.84c-4.63-4.65-4.62-10.59-0.33-14.7c4.15-3.97,9.76-3.96,14.11,0.38
			c38,37.93,75.94,75.92,113.9,113.89C283.83,152.97,284.12,153.43,284.58,154.03z"/>
		<path fill="#FFFFFF" d="M195.12,160.53c-8.34-8.45-17.12-17.42-25.99-26.31c-23.11-23.15-46.25-46.27-69.39-69.39
			c-3.03-3.03-5.09-6.34-3.33-10.84c1.62-4.13,4.54-6.63,9.02-7.08c3.74-0.37,6.35,1.7,8.81,4.16
			c20.34,20.38,40.69,40.74,61.05,61.1c10.13,10.13,20.25,20.27,30.42,30.36c1.33,1.32,2.91,2.4,4.09,3.36
			C204.63,151.04,200.06,155.6,195.12,160.53z"/>
		<path fill="#FFFFFF" d="M175.83,180.38c-4.78,4.75-9.34,9.3-14.07,14c-0.44-0.37-1.07-0.82-1.62-1.37
			c-23.9-23.89-47.82-47.76-71.67-71.69c-5.8-5.82-5.14-12.85,1.34-16.64c4.3-2.51,8.25-1.91,12.39,2.21
			c15.81,15.73,31.55,31.53,47.33,47.29C158.32,162.96,167.14,171.72,175.83,180.38z"/>
	</g>
</g>
</svg>
